<svg xmlns="http://www.w3.org/2000/svg" width="263.03" height="35" viewBox="0 0 263.03 35"><rect class="svg__rect" x="0" y="0" width="109.34" height="35" fill="#EA4560"/><rect class="svg__rect" x="107.34" y="0" width="155.69" height="35" fill="#E98898"/><path class="svg__text" d="M15.70 22L14.22 22L14.22 13.47L17.48 13.47Q18.91 13.47 19.75 14.21Q20.59 14.96 20.59 16.18L20.59 16.18Q20.59 17.44 19.77 18.13Q18.95 18.83 17.46 18.83L17.46 18.83L15.70 18.83L15.70 22ZM15.70 14.66L15.70 17.64L17.48 17.64Q18.27 17.64 18.69 17.27Q19.10 16.90 19.10 16.19L19.10 16.19Q19.10 15.50 18.68 15.09Q18.26 14.68 17.52 14.66L17.52 14.66L15.70 14.66ZM25.65 22L24.11 22L27.34 13.47L28.67 13.47L31.89 22L30.35 22L29.65 20.01L26.35 20.01L25.65 22ZM28.00 15.28L26.76 18.82L29.23 18.82L28.00 15.28ZM35.58 18.19L35.58 18.19L35.58 17.39Q35.58 16.19 36.01 15.27Q36.44 14.35 37.24 13.85Q38.04 13.35 39.08 13.35L39.08 13.35Q40.50 13.35 41.36 14.12Q42.22 14.89 42.36 16.29L42.36 16.29L40.88 16.29Q40.78 15.37 40.35 14.96Q39.92 14.55 39.08 14.55L39.08 14.55Q38.12 14.55 37.60 15.26Q37.08 15.96 37.07 17.33L37.07 17.33L37.07 18.09Q37.07 19.47 37.56 20.20Q38.06 20.92 39.01 20.92L39.01 20.92Q39.89 20.92 40.33 20.53Q40.77 20.14 40.88 19.22L40.88 19.22L42.36 19.22Q42.23 20.59 41.35 21.35Q40.47 22.12 39.01 22.12L39.01 22.12Q37.99 22.12 37.22 21.63Q36.44 21.15 36.02 20.26Q35.60 19.37 35.58 18.19ZM48.15 22L46.67 22L46.67 13.47L48.15 13.47L48.15 17.47L48.98 16.46L51.47 13.47L53.26 13.47L50.09 17.25L53.45 22L51.69 22L49.12 18.31L48.15 19.34L48.15 22ZM58.00 22L56.46 22L59.69 13.47L61.02 13.47L64.24 22L62.70 22L62.00 20.01L58.70 20.01L58.00 22ZM60.35 15.28L59.11 18.82L61.58 18.82L60.35 15.28ZM67.95 18.13L67.95 18.13L67.95 17.46Q67.95 15.53 68.88 14.44Q69.81 13.35 71.46 13.35L71.46 13.35Q72.89 13.35 73.72 14.05Q74.56 14.76 74.73 16.08L74.73 16.08L73.28 16.08Q73.03 14.54 71.49 14.54L71.49 14.54Q70.50 14.54 69.98 15.26Q69.46 15.98 69.44 17.37L69.44 17.37L69.44 18.02Q69.44 19.40 70.02 20.17Q70.61 20.93 71.64 20.93L71.64 20.93Q72.78 20.93 73.26 20.42L73.26 20.42L73.26 18.75L71.50 18.75L71.50 17.62L74.74 17.62L74.74 20.89Q74.28 21.50 73.46 21.81Q72.64 22.12 71.59 22.12L71.59 22.12Q70.52 22.12 69.69 21.63Q68.87 21.14 68.42 20.24Q67.97 19.33 67.95 18.13ZM84.93 22L79.36 22L79.36 13.47L84.89 13.47L84.89 14.66L80.84 14.66L80.84 17.02L84.34 17.02L84.34 18.19L80.84 18.19L80.84 20.82L84.93 20.82L84.93 22ZM90.61 22L89.13 22L89.13 13.47L92.13 13.47Q93.61 13.47 94.41 14.13Q95.21 14.79 95.21 16.05L95.21 16.05Q95.21 16.90 94.80 17.48Q94.39 18.06 93.65 18.37L93.65 18.37L95.56 21.92L95.56 22L93.97 22L92.26 18.71L90.61 18.71L90.61 22ZM90.61 14.66L90.61 17.52L92.14 17.52Q92.89 17.52 93.31 17.15Q93.73 16.77 93.73 16.11L93.73 16.11Q93.73 15.43 93.34 15.05Q92.95 14.68 92.18 14.66L92.18 14.66L90.61 14.66Z" fill="#FFFFFF"/><path class="svg__text" d="M123.86 22L121.53 22L121.53 13.60L123.48 13.60L127.19 18.07L127.19 13.60L129.52 13.60L129.52 22L127.57 22L123.86 17.52L123.86 22ZM134.25 17.80L134.25 17.80Q134.25 16.55 134.86 15.55Q135.46 14.56 136.52 14.00Q137.59 13.43 138.92 13.43L138.92 13.43Q140.25 13.43 141.31 14.00Q142.38 14.56 142.98 15.55Q143.59 16.55 143.59 17.80L143.59 17.80Q143.59 19.05 142.98 20.04Q142.38 21.04 141.31 21.60Q140.25 22.17 138.92 22.17L138.92 22.17Q137.59 22.17 136.52 21.60Q135.46 21.04 134.86 20.04Q134.25 19.05 134.25 17.80ZM136.65 17.80L136.65 17.80Q136.65 18.51 136.95 19.05Q137.25 19.60 137.77 19.90Q138.29 20.20 138.92 20.20L138.92 20.20Q139.56 20.20 140.07 19.90Q140.59 19.60 140.89 19.05Q141.19 18.51 141.19 17.80L141.19 17.80Q141.19 17.09 140.89 16.54Q140.59 16 140.07 15.70Q139.56 15.40 138.92 15.40L138.92 15.40Q138.28 15.40 137.77 15.70Q137.25 16 136.95 16.54Q136.65 17.09 136.65 17.80ZM150.11 15.48L147.53 15.48L147.53 13.60L155.05 13.60L155.05 15.48L152.48 15.48L152.48 22L150.11 22L150.11 15.48ZM168.47 22L165.75 13.60L168.20 13.60L169.89 18.96L171.66 13.60L173.85 13.60L175.54 19.01L177.30 13.60L179.57 13.60L176.85 22L174.30 22L172.70 16.89L171.02 22L168.47 22ZM183.65 17.80L183.65 17.80Q183.65 16.55 184.26 15.55Q184.86 14.56 185.93 14.00Q186.99 13.43 188.32 13.43L188.32 13.43Q189.65 13.43 190.71 14.00Q191.78 14.56 192.38 15.55Q192.99 16.55 192.99 17.80L192.99 17.80Q192.99 19.05 192.38 20.04Q191.78 21.04 190.72 21.60Q189.65 22.17 188.32 22.17L188.32 22.17Q186.99 22.17 185.93 21.60Q184.86 21.04 184.26 20.04Q183.65 19.05 183.65 17.80ZM186.05 17.80L186.05 17.80Q186.05 18.51 186.35 19.05Q186.65 19.60 187.17 19.90Q187.69 20.20 188.32 20.20L188.32 20.20Q188.96 20.20 189.47 19.90Q189.99 19.60 190.29 19.05Q190.59 18.51 190.59 17.80L190.59 17.80Q190.59 17.09 190.29 16.54Q189.99 16 189.47 15.70Q188.96 15.40 188.32 15.40L188.32 15.40Q187.68 15.40 187.17 15.70Q186.65 16 186.35 16.54Q186.05 17.09 186.05 17.80ZM200.10 22L197.72 22L197.72 13.60L201.56 13.60Q202.70 13.60 203.54 13.98Q204.38 14.35 204.84 15.06Q205.29 15.76 205.29 16.71L205.29 16.71Q205.29 17.62 204.87 18.30Q204.44 18.98 203.65 19.36L203.65 19.36L205.46 22L202.91 22L201.39 19.77L200.10 19.77L200.10 22ZM200.10 15.47L200.10 17.93L201.41 17.93Q202.15 17.93 202.52 17.61Q202.89 17.29 202.89 16.71L202.89 16.71Q202.89 16.12 202.52 15.79Q202.15 15.47 201.41 15.47L201.41 15.47L200.10 15.47ZM212.44 22L210.08 22L210.08 13.60L212.44 13.60L212.44 17.09L215.69 13.60L218.30 13.60L214.87 17.32L218.48 22L215.72 22L213.32 18.95L212.44 19.90L212.44 22ZM224.97 22L222.59 22L222.59 13.60L224.97 13.60L224.97 22ZM232.48 22L230.14 22L230.14 13.60L232.10 13.60L235.81 18.07L235.81 13.60L238.14 13.60L238.14 22L236.18 22L232.48 17.52L232.48 22ZM242.87 17.80L242.87 17.80Q242.87 16.54 243.47 15.54Q244.06 14.55 245.13 13.99Q246.20 13.43 247.55 13.43L247.55 13.43Q248.72 13.43 249.66 13.83Q250.60 14.22 251.22 14.97L251.22 14.97L249.71 16.33Q248.86 15.40 247.69 15.40L247.69 15.40Q247.67 15.40 247.67 15.40L247.67 15.40Q246.59 15.40 245.93 16.06Q245.27 16.71 245.27 17.80L245.27 17.80Q245.27 18.50 245.57 19.04Q245.87 19.59 246.41 19.89Q246.95 20.20 247.65 20.20L247.65 20.20Q248.33 20.20 248.93 19.93L248.93 19.93L248.93 17.62L251.03 17.62L251.03 21.10Q250.31 21.61 249.37 21.89Q248.44 22.17 247.50 22.17L247.50 22.17Q246.18 22.17 245.12 21.61Q244.06 21.05 243.47 20.05Q242.87 19.06 242.87 17.80Z" fill="#FFFFFF" x="120.34"/></svg>